<svg xmlns="http://www.w3.org/2000/svg" viewBox="0 0 139.34 147.09"><defs><style>.cls-1{fill:#ffde17;}.cls-2{font-size:9.28px;font-family:MyriadPro-Regular, Myriad Pro;}.cls-2,.cls-3{fill:#fff;}</style></defs><title>hackr_logo</title><g id="Layer_2" data-name="Layer 2"><g id="Layer_1-2" data-name="Layer 1"><circle class="cls-1" cx="58.75" cy="57.47" r="43.35"/><text class="cls-2" transform="translate(59.14 94.06) rotate(-176.8)">0</text><text class="cls-2" transform="matrix(-0.98, -0.18, 0.18, -0.98, 54.6, 93.82)">1</text><text class="cls-2" transform="translate(50.12 93) rotate(-162.11)">0</text><text class="cls-2" transform="translate(45.77 91.61) rotate(-154.75)">0</text><text class="cls-2" transform="translate(41.64 89.68) rotate(-147.36)">1</text><text class="cls-2" transform="translate(37.78 87.23) rotate(-139.92)">0</text><text class="cls-2" transform="translate(34.3 84.31) rotate(-132.49)">0</text><text class="cls-2" transform="matrix(-0.58, -0.82, 0.82, -0.58, 31.22, 80.96)">0</text><text class="cls-2" transform="matrix(-0.51, -0.86, 0.86, -0.51, 28.63, 77.17)"> </text><text class="cls-2" transform="matrix(-0.42, -0.91, 0.91, -0.42, 27.63, 75.6)">0</text><text class="cls-2" transform="matrix(-0.3, -0.95, 0.95, -0.3, 25.71, 71.47)">1</text><text class="cls-2" transform="translate(24.34 67.13) rotate(-99.96)">1</text><text class="cls-2" transform="matrix(-0.04, -1, 1, -0.04, 23.53, 62.63)">0</text><text class="cls-2" transform="translate(23.32 58.08) rotate(-85.12)">0</text><text class="cls-2" transform="translate(23.7 53.56) rotate(-77.8)">0</text><text class="cls-2" transform="translate(24.65 49.07) rotate(-70.41)">0</text><text class="cls-2" transform="translate(26.16 44.79) rotate(-63.08)">1</text><text class="cls-2" transform="matrix(0.53, -0.85, 0.85, 0.53, 28.31, 40.7)"> </text><text class="cls-2" transform="matrix(0.61, -0.79, 0.79, 0.61, 29.21, 39.11)">0</text><text class="cls-2" transform="translate(31.99 35.47) rotate(-45.13)">1</text><text class="cls-2" transform="translate(35.18 32.24) rotate(-37.73)">1</text><text class="cls-2" transform="translate(38.81 29.44) rotate(-30.65)">0</text><text class="cls-2" transform="matrix(0.92, -0.39, 0.39, 0.92, 42.7, 27.13)">0</text><text class="cls-2" transform="translate(46.91 25.32) rotate(-15.65)">0</text><text class="cls-2" transform="matrix(0.99, -0.14, 0.14, 0.99, 51.27, 24.08)">1</text><text class="cls-2" transform="translate(55.79 23.41) rotate(-0.82)">1</text><text class="cls-2" transform="translate(60.4 23.41) rotate(4.41)"> </text><text class="cls-2" transform="matrix(0.99, 0.17, -0.17, 0.99, 62.25, 23.48)">0</text><text class="cls-2" transform="translate(66.74 24.23) rotate(16.99)">1</text><text class="cls-2" transform="translate(71.09 25.54) rotate(24.3)">1</text><text class="cls-2" transform="matrix(0.85, 0.53, -0.53, 0.85, 75.24, 27.4)">0</text><text class="cls-2" transform="translate(79.13 29.79) rotate(39.11)">1</text><text class="cls-2" transform="translate(82.68 32.66) rotate(46.57)">0</text><text class="cls-2" transform="matrix(0.59, 0.81, -0.81, 0.59, 85.83, 35.96)">1</text><text class="cls-2" transform="translate(88.52 39.64) rotate(61.27)">1</text><text class="cls-2" transform="translate(90.68 43.71) rotate(66.44)"> </text><text class="cls-2" transform="translate(91.48 45.35) rotate(71.66)">0</text><text class="cls-2" transform="translate(92.92 49.68) rotate(79.11)">1</text><text class="cls-2" transform="translate(93.8 54.14) rotate(86.53)">1</text><text class="cls-2" transform="translate(94.08 58.7) rotate(93.94)">1</text><text class="cls-2" transform="translate(93.78 63.25) rotate(101.31)">0</text><text class="cls-2" transform="translate(92.9 67.73) rotate(108.65)">0</text><text class="cls-2" transform="translate(91.45 72.06) rotate(116.02)">1</text><text class="cls-2" transform="matrix(-0.55, 0.83, -0.83, -0.55, 89.46, 76.16)">0</text><path class="cls-3" d="M58.75,65.27c-.4.28-.63.57-.85.56s-.4-.32-.6-.51c.19-.19.36-.52.55-.54S58.33,65,58.75,65.27Z"/><path class="cls-3" d="M78.87,82.07c-.25-.47-.49-.72-.47-.94s.34-.35.53-.52c.17.18.47.37.48.56S79.16,81.62,78.87,82.07Z"/><path class="cls-3" d="M112.05,92.27c-.36.24-.56.49-.77.49s-.41-.33-.41-.51.28-.5.42-.49S111.7,92,112.05,92.27Z"/><path d="M138.76,135.55l-.52-.56a22.27,22.27,0,0,1-6-13.5c-.2-2.43-.4-4.87-.75-7.29a49.94,49.94,0,0,0-3-10.64,18.15,18.15,0,0,0-7.65-9.39,17.65,17.65,0,0,0-4.86-2c-1.13-.29-2.14-1-3.26-1.38-2.24-.72-4.49-1.39-6.77-2-2.9-.72-5.84-1.24-8.73-1.95s-6-1.43-8.86-2.41c-2.66-.91-5-2.42-5.79-5.41-.24-.88-.38-1.78-.6-2.66-.91-3.74-.15-7.38.63-11a8.36,8.36,0,0,0,.11-3.12,4.37,4.37,0,0,0-.59.18c-1.62.69-3.22,1.41-4.85,2.08a1.47,1.47,0,0,1-1,0c-1.15-.5-2.27-1-3.36-1.64A1.83,1.83,0,0,1,72,62c-.27-1-.4-2-.6-3-.25-1.26-.65-1.45-1.71-.67a32.58,32.58,0,0,0-2.88,2.39,1.58,1.58,0,0,1-2.07.3c-1.33-.76-2.74-1.38-4-2.22-3.06-2-6.28-3.81-8.15-7.18a1.31,1.31,0,0,0-1.14-.39c-.28.06-.58.58-.63.93a13.58,13.58,0,0,0-.12,2.55c.06,1.58.23,3.15.29,4.73h.08a1.16,1.16,0,0,1,.56,1.22c-.12.35-.58.19-1,0l-.13-.07c-.62.44-.5,1-.3,1.59a17.6,17.6,0,0,0,1.29,2.87c2,3.48,4,7,6.22,10.38a26.1,26.1,0,0,1,4.2,13.23c.22,4.82.21,9.66.44,14.48a14.94,14.94,0,0,0,1,4.63,22.46,22.46,0,0,1,1.7,9c-.08,2.56-.06,5.12-.26,7.67-.29,3.62-.71,7.23-1.13,10.84a10.83,10.83,0,0,1-.64,2.2c-.25.74-.6,1.45-.85,2.19a.88.88,0,0,0,.7,1.24,9.51,9.51,0,0,0,1.85.18c1.68,0,2.35-.53,2.57-2.19.34-2.61.64-5.23.92-7.86.17-1.63.21-3.28.41-4.92s.48-3.48.83-5.2.84-3.72,1.39-5.54A2.4,2.4,0,0,1,72,114.05c.67-.33,1.07.38,1.39.84a10.44,10.44,0,0,1,1.89,5.4A140.24,140.24,0,0,1,75,137.07a15.77,15.77,0,0,1-1.22,6,1,1,0,0,0,.86,1.57,4.6,4.6,0,0,0,2,0c2-.62,2.7-1.15,2.7-3,0-.65.2-1.3.22-2,.14-4.2.22-8.4.37-12.6.1-2.58.27-5.17.46-7.74.1-1.34.41-2.69,1.88-3.14a16.65,16.65,0,0,1,3-.41c.27,0,.55,0,1,0l-.68-1.08,2,.24c.69.1,1.38.43,2-.23.11-.12.43-.09.64-.06,1.65.24,3.3.5,5,.76a20.16,20.16,0,0,1,6.54,2,10.14,10.14,0,0,1,1.79,1.11,9.64,9.64,0,0,1,2.87,5.92c.34,1.84.36,3.74.71,5.57a37.12,37.12,0,0,1,.43,9c0,.7.14,1,.81,1s1.28.25,1.92.37c.91.16,1.1,0,1.17-.9a26.79,26.79,0,0,0,.18-3.23c-.13-3.55-.35-7.09-.48-10.64-.08-2.07-.1-4.15-.07-6.22a1.51,1.51,0,0,1,.67-1,1.11,1.11,0,0,1,1,.24,8,8,0,0,1,1.45,2.26,42.24,42.24,0,0,1,1.64,5.71c.51,2.64.8,5.32,1.17,8,.21,1.5.37,3,.56,4.49a7.86,7.86,0,0,1-.16,4.19c-.32.78-.57,1.6-.85,2.4a.79.79,0,0,0,.43,1.06,3.59,3.59,0,0,0,3.65-.19,1.6,1.6,0,0,0,.6-1,25.78,25.78,0,0,0,.37-7.64c-.2-3.66-.55-7.32-.7-11a76.59,76.59,0,0,1,0-8.16c.18-2.94.75-5.85,1-8.79.31-4.1.46-8.22-1.35-12.14.11.13.24.24.33.37a5.52,5.52,0,0,1,.4.66,13.22,13.22,0,0,1,1.4,6.32c0,1.71-.07,3.41-.13,5.11q-.12,3.75-.28,7.5a43.47,43.47,0,0,0,.5,10.19,14,14,0,0,0,4.51,8.29,9.9,9.9,0,0,0,11.3.93C139.56,136.54,139.57,136.43,138.76,135.55ZM70,82c-.2,0-.4-.33-.6-.51.18-.19.36-.52.55-.54s.48.24.89.49C70.4,81.72,70.17,82,70,82Zm21,16.24c-.25-.47-.49-.72-.47-.94s.34-.35.53-.52c.17.18.47.37.48.56S91.2,97.79,90.92,98.24Zm4.9-3a1,1,0,0,1-.56-.58c0-.12.32-.5.49-.49s.44.26.81.51C96.2,95,96,95.28,95.82,95.24Zm21.92,2.27c-.48-.61-.92-1.16-1.35-1.72h0c-.18-.46-.36-.91-.56-1.45C116.8,94.68,118,96.67,117.74,97.51Zm-5.32-5.13-.19.24c-.63-.48-1.26-1-2.07-1.56A2.37,2.37,0,0,1,112.42,92.38Zm-5.67-2.19a6.18,6.18,0,0,0,.92.43,5,5,0,0,0,1.21.25c.72,0,1,.47,1.37,1C108.8,92.13,106.76,91.17,106.75,90.19Zm3.44,3.4a1.61,1.61,0,0,1,2,1.44Zm1.68-.56a3.61,3.61,0,0,1,2.53,2C113.76,95.14,112.27,94,111.87,93Zm2.92,5a1.46,1.46,0,0,1-1-1.18l.25-.22,1.09,1.13ZM114,93.64l.23-.19c1,.45,1.32,1.64,2.1,2.33l-.12.67-.27.08Zm2.33,4c.39.59.78,1.17,1.15,1.76a.36.36,0,0,1-.14.26c-.12,0-.34,0-.38-.06-.35-.57-.67-1.15-1-1.73Zm1,3.64c-.18,0-.53-.34-.5-.48s.3-.59.49-.61.46.29.86.57C117.8,101.05,117.58,101.31,117.34,101.31Zm1.74-.19c-.14,0-.43,0-.45,0-.23-.67-1-1.21-.43-2.13.33.6.67,1.2,1,1.81C119.22,100.86,119.15,101.1,119.08,101.12Zm1.38,2.23c-.81-1.1-.81-2.33-1.1-3.45A3.73,3.73,0,0,1,120.46,103.35Zm2.87,5.58c-.15,0-.41-.33-.41-.51s.28-.5.42-.49.41.26.76.51C123.74,108.68,123.54,108.92,123.33,108.93Zm1.89-4.88c-.18,0-.41-.34-.45-.57s.31-.43.47-.42.42.26.75.5C125.64,103.8,125.41,104.08,125.22,104.05Z"/><circle cx="69.69" cy="82.18" r="3.12"/></g></g></svg>