<svg xmlns="http://www.w3.org/2000/svg" viewBox="0 0 110.2 117.36"><defs><style>.cls-1{fill:#e7635e}.cls-2{fill:#fff}</style></defs><title>hackr_2</title><g id="Layer_2" data-name="Layer 2"><g id="Layer_1-2" data-name="Layer 1"><path d="M53.88,86.41C19.68,86.41,0,86.88,0,91.1c0,2.42,5.11,5,19.31,6.44l-.94,19.09H21.1l.46-9.38,12.24-1-.09,10.42h2.73l.15-17.88c6.65.3,13.45-2.84,20.95-2.84,7.16,0,14.42,3.15,20.81,2.87l-3.78,17.13,2.7.58,3.91-17.84c9.82-.49,12.66-1.74,19.21-2.74,8.59-1.31,9.81-3.28,9.81-5.1C110.2,86.59,88.08,86.41,53.88,86.41Zm-20.05,17-12.15,1.08L22,97.8c3.68.32,7.64.59,11.85.81Z" class="cls-1"/><path d="M54.27,101.64l-1.68-1.16-11.92,2.93.67,2.64,10.44-2.55.61,4.52H43.22l-1.3,1-1.68,6.65,1.56,1.65,12-1.92.52.61,2.9.82.73-2.61-2-.58ZM43.4,114.31l.89-3.53h8.47l.26,2Z" class="cls-1"/><polygon points="62.54 113.73 63.58 104.14 71.44 105.41 71.87 102.71 62.56 101.21 61 102.39 59.66 115.16 61.14 116.63 72.54 115.3 72.22 112.57 62.54 113.73" class="cls-1"/><polygon points="88.23 105.41 86.34 103.44 80.49 109.04 80.52 111.01 87.65 117.24 89.45 115.18 83.44 109.96 88.23 105.41" class="cls-1"/><polygon points="100.9 101.99 94.29 105.12 94.2 101.58 91.48 101.58 91.91 116.89 94.67 116.89 94.38 108.11 102.06 104.51 100.9 101.99" class="cls-1"/><path d="M91.87,84.37l-.52-.57a22.28,22.28,0,0,1-6-13.49c-.2-2.44-.4-4.88-.75-7.29a49.59,49.59,0,0,0-3-10.64A17.7,17.7,0,0,0,69.06,41c-1.13-.28-2.14-1-3.26-1.37-2.23-.72-4.49-1.4-6.77-2-2.9-.71-5.83-1.24-8.73-1.95s-6-1.42-8.85-2.41c-2.67-.91-5-2.41-5.8-5.41-.23-.87-.38-1.77-.6-2.65-.91-3.74-.15-7.39.63-11a8.57,8.57,0,0,0,.12-3.12c-.28.08-.45.11-.6.17-1.62.7-3.22,1.42-4.85,2.08a1.47,1.47,0,0,1-1,0c-1.14-.5-2.27-1-3.36-1.64a1.78,1.78,0,0,1-.81-1c-.28-1-.4-2-.61-3-.25-1.27-.65-1.45-1.71-.68A34.61,34.61,0,0,0,20,9.5a1.57,1.57,0,0,1-2.07.3c-1.34-.75-2.75-1.38-4-2.21C10.8,5.6,7.59,3.77,5.71.41A1.28,1.28,0,0,0,4.57,0C4.29.08,4,.6,3.94,1a14.41,14.41,0,0,0-.12,2.54c.07,1.58.23,3.16.29,4.74h.08a1.16,1.16,0,0,1,.57,1.22c-.13.34-.59.18-1,0a.75.75,0,0,1-.13-.06c-.62.43-.5,1-.3,1.58a17.23,17.23,0,0,0,1.29,2.87c2,3.49,4,7,6.22,10.38A26,26,0,0,1,15,37.49c.22,4.83.21,9.66.45,14.49a14.65,14.65,0,0,0,1,4.63,22.45,22.45,0,0,1,1.69,9c-.08,2.55-.06,5.12-.26,7.67-.29,3.62-.71,7.23-1.13,10.84a10.93,10.93,0,0,1-.64,2.19c-.25.75-.6,1.46-.84,2.2A.86.86,0,0,0,16,89.7a8.89,8.89,0,0,0,1.86.18c1.67,0,2.34-.53,2.56-2.18.34-2.61.64-5.24.92-7.86.17-1.64.22-3.29.42-4.92s.47-3.49.83-5.21.83-3.71,1.38-5.53a2.4,2.4,0,0,1,1.16-1.31c.68-.33,1.07.37,1.4.84a10.36,10.36,0,0,1,1.88,5.39,136.35,136.35,0,0,1-.31,16.79,15.57,15.57,0,0,1-1.22,6,1,1,0,0,0,.86,1.58,4.6,4.6,0,0,0,2,0c2-.62,2.7-1.14,2.7-3,0-.65.21-1.3.23-2,.13-4.2.21-8.4.36-12.6.1-2.59.27-5.17.46-7.75.1-1.33.41-2.68,1.89-3.14a16.54,16.54,0,0,1,3-.4c.28,0,.56,0,1,0l-.68-1.07c.81.09,1.42.15,2,.24s1.37.43,2-.24c.11-.11.43-.08.64-.05,1.66.24,3.31.5,5,.75a20.32,20.32,0,0,1,6.54,2,9.32,9.32,0,0,1,1.78,1.11,9.71,9.71,0,0,1,2.88,5.92c.33,1.83.35,3.73.7,5.57a37,37,0,0,1,.43,9c0,.71.15,1,.82,1s1.28.25,1.92.36c.9.16,1.09,0,1.17-.89a29.25,29.25,0,0,0,.17-3.23c-.12-3.55-.35-7.1-.48-10.64q-.12-3.12-.06-6.22a1.41,1.41,0,0,1,.67-1,1.09,1.09,0,0,1,1,.23,8.18,8.18,0,0,1,1.45,2.27,42.11,42.11,0,0,1,1.64,5.7c.51,2.65.8,5.33,1.17,8,.21,1.49.37,3,.56,4.48A7.85,7.85,0,0,1,70.47,92c-.32.79-.57,1.61-.85,2.41a.8.8,0,0,0,.44,1.06,3.59,3.59,0,0,0,3.64-.19,1.59,1.59,0,0,0,.61-1,26.1,26.1,0,0,0,.36-7.64c-.19-3.66-.55-7.31-.7-11a79.31,79.31,0,0,1,0-8.16c.19-2.94.76-5.86,1-8.8.31-4.1.45-8.21-1.35-12.13A3.68,3.68,0,0,1,74,47c.15.21.28.43.41.65A13.11,13.11,0,0,1,75.75,54c0,1.7-.07,3.4-.13,5.11q-.12,3.75-.27,7.5a42.93,42.93,0,0,0,.49,10.19,14,14,0,0,0,4.51,8.28,9.86,9.86,0,0,0,11.3.93C92.66,85.36,92.67,85.25,91.87,84.37ZM44,47.06c-.25-.47-.48-.72-.46-1s.34-.35.52-.52c.17.19.48.37.48.56S44.31,46.61,44,47.06Zm4.9-3a1,1,0,0,1-.55-.59c0-.11.31-.49.48-.49s.45.27.81.51C49.31,43.78,49.06,44.1,48.92,44.06Zm21.92,2.27-1.35-1.72h0c-.18-.46-.35-.92-.56-1.45C69.91,43.49,71.12,45.49,70.84,46.33ZM65.52,41.2l-.19.23-2.06-1.56A2.38,2.38,0,0,1,65.52,41.2ZM59.85,39a8.35,8.35,0,0,0,.93.43,4.57,4.57,0,0,0,1.2.24c.72,0,1,.48,1.37,1C61.9,40.94,59.86,40,59.85,39ZM63.3,42.4a1.6,1.6,0,0,1,2,1.45ZM65,41.85a3.6,3.6,0,0,1,2.53,2C66.86,44,65.38,42.76,65,41.85Zm2.92,5a1.46,1.46,0,0,1-1-1.18l.25-.22c.37.37.73.75,1.09,1.12Zm-.75-4.39.23-.18c1,.44,1.32,1.63,2.11,2.32,0,.23-.08.45-.13.68l-.27.08C68.44,44.38,67.79,43.42,67.14,42.45Zm2.34,4c.38.58.77,1.16,1.14,1.76,0,0-.07.24-.14.25s-.33,0-.38,0c-.35-.57-.66-1.16-1-1.74Zm1,3.64c-.17,0-.52-.34-.5-.49s.31-.59.5-.6.46.29.86.57C70.91,49.86,70.68,50.12,70.44,50.13Zm1.74-.19c-.14,0-.43,0-.45,0-.23-.68-1-1.21-.43-2.13.33.6.67,1.2,1,1.81A.39.39,0,0,1,72.18,49.94Zm1.39,2.22c-.81-1.09-.81-2.32-1.11-3.44A3.74,3.74,0,0,1,73.57,52.16Zm2.86,5.58c-.15,0-.41-.33-.41-.51s.29-.49.42-.48.41.26.76.51C76.85,57.5,76.64,57.74,76.43,57.74Zm1.9-4.87c-.19,0-.42-.35-.46-.57s.32-.44.48-.43.41.26.75.5C78.75,52.61,78.52,52.89,78.33,52.87Z" class="cls-2"/></g></g></svg>